<svg xmlns="http://www.w3.org/2000/svg" xmlns:xlink="http://www.w3.org/1999/xlink" xmlns:inkscape="http://www.inkscape.org/namespaces/inkscape" version="1.1" width="640.006" height="374.877" viewBox="0 0 640.006 374.877">
<path transform="matrix(1,0,0,-1,320.003,187.43901)" stroke-width="4.98138" stroke-linecap="square" stroke-miterlimit="10" stroke-linejoin="miter" fill="none" stroke="#999999" d="M-95.07559 110.7936 92.82759 110.79263"/>
<path transform="matrix(1,0,0,-1,320.003,187.43901)" stroke-width="4.98138" stroke-linecap="square" stroke-miterlimit="10" stroke-linejoin="miter" fill="none" stroke="#999999" d="M-95.07559 110.7936 165.95043 110.79265"/>
<path transform="matrix(1,0,0,-1,320.003,187.43901)" stroke-width="4.98138" stroke-linecap="square" stroke-miterlimit="10" stroke-linejoin="miter" fill="none" stroke="#999999" d="M-95.07559 110.7936 244.788 110.79265"/>
<path transform="matrix(1,0,0,-1,320.003,187.43901)" stroke-width="4.98138" stroke-linecap="square" stroke-miterlimit="10" stroke-linejoin="miter" fill="none" stroke="#999999" d="M-23.67294 58.85088 20.26717 58.85078"/>
<path transform="matrix(1,0,0,-1,320.003,187.43901)" stroke-width="4.98138" stroke-linecap="square" stroke-miterlimit="10" stroke-linejoin="miter" fill="none" stroke="#999999" d="M-23.67294 58.85088 95.25769 58.85092"/>
<path transform="matrix(1,0,0,-1,320.003,187.43901)" stroke-width="4.98138" stroke-linecap="square" stroke-miterlimit="10" stroke-linejoin="miter" fill="none" stroke="#999999" d="M-23.67294 58.85088 168.38066 58.85089"/>
<path transform="matrix(1,0,0,-1,320.003,187.43901)" stroke-width="4.98138" stroke-linecap="square" stroke-miterlimit="10" stroke-linejoin="miter" fill="none" stroke="#999999" d="M-23.67294 58.85088 247.21846 58.85086"/>
<path transform="matrix(1,0,0,-1,320.003,187.43901)" stroke-width="4.98138" stroke-linecap="square" stroke-miterlimit="10" stroke-linejoin="miter" fill="none" stroke="#999999" d="M4.04813 6.90913-127.35652 6.90909"/>
<path transform="matrix(1,0,0,-1,320.003,187.43901)" stroke-width="4.98138" stroke-linecap="square" stroke-miterlimit="10" stroke-linejoin="miter" fill="none" stroke="#999999" d="M78.99751-45.03258-124.56107-45.03255"/>
<path transform="matrix(1,0,0,-1,320.003,187.43901)" stroke-width="4.98138" stroke-linecap="square" stroke-miterlimit="10" stroke-linejoin="miter" fill="none" stroke="#999999" d="M154.02994-96.97432-124.05498-96.97427"/>
<path transform="matrix(1,0,0,-1,320.003,187.43901)" stroke-width="4.98138" stroke-linecap="square" stroke-miterlimit="10" stroke-linejoin="miter" fill="none" stroke="#999999" d="M225.24329-148.91606-123.39436-148.91602"/>
<path transform="matrix(1,0,0,-1,320.003,187.43901)" stroke-width="4.98138" stroke-linecap="square" stroke-miterlimit="10" stroke-linejoin="miter" fill="none" stroke="#999999" d="M-214.4494 110.7926-222.33457 110.79263"/>
<path transform="matrix(1,0,0,-1,320.003,187.43901)" stroke-width="4.98138" stroke-linecap="square" stroke-miterlimit="10" stroke-linejoin="miter" fill="none" stroke="#999999" d="M113.68127 102.29057 113.67905-23.31374"/>
<path transform="matrix(1,0,0,-1,320.003,187.43901)" stroke-width="4.98138" stroke-linecap="square" stroke-miterlimit="10" stroke-linejoin="miter" fill="none" stroke="#999999" d="M186.80492 102.29057 186.80193-75.25548"/>
<path transform="matrix(1,0,0,-1,320.003,187.43901)" stroke-width="4.98138" stroke-linecap="square" stroke-miterlimit="10" stroke-linejoin="miter" fill="none" stroke="#999999" d="M265.6428 102.29057 265.63957-127.1972"/>
<path transform="matrix(1,0,0,-1,320.003,187.43901)" stroke-width="4.98138" stroke-linecap="square" stroke-miterlimit="10" stroke-linejoin="miter" fill="none" stroke="#999999" d="M38.69067 50.62508 38.68814 28.62799"/>
<path transform="matrix(1,0,0,-1,320.003,187.43901)" stroke-width="4.98138" stroke-linecap="square" stroke-miterlimit="10" stroke-linejoin="miter" fill="none" stroke="#999999" d="M113.68077 50.62508 113.67905-23.31374"/>
<path transform="matrix(1,0,0,-1,320.003,187.43901)" stroke-width="4.98138" stroke-linecap="square" stroke-miterlimit="10" stroke-linejoin="miter" fill="none" stroke="#999999" d="M186.8038 50.62508 186.80193-75.25548"/>
<path transform="matrix(1,0,0,-1,320.003,187.43901)" stroke-width="4.98138" stroke-linecap="square" stroke-miterlimit="10" stroke-linejoin="miter" fill="none" stroke="#999999" d="M265.6421 50.62508 265.63957-127.1972"/>
<path transform="matrix(1,0,0,-1,320.003,187.43901)" stroke-width="4.98138" stroke-linecap="square" stroke-miterlimit="10" stroke-linejoin="miter" fill="none" stroke="#999999" d="M-154.75766 15.41234-154.75264 89.06982"/>
<path transform="matrix(1,0,0,-1,320.003,187.43901)" stroke-width="4.98138" stroke-linecap="square" stroke-miterlimit="10" stroke-linejoin="miter" fill="none" stroke="#999999" d="M-154.75725-36.52937-154.75264 89.06982"/>
<path transform="matrix(1,0,0,-1,320.003,187.43901)" stroke-width="4.98138" stroke-linecap="square" stroke-miterlimit="10" stroke-linejoin="miter" fill="none" stroke="#999999" d="M-154.7583-88.47148-154.75264 89.06982"/>
<path transform="matrix(1,0,0,-1,320.003,187.43901)" stroke-width="4.98138" stroke-linecap="square" stroke-miterlimit="10" stroke-linejoin="miter" fill="none" stroke="#999999" d="M-154.7575-140.41278-154.75264 89.06982"/>
<path transform="matrix(1,0,0,-1,320.003,187.43901)" stroke-width="4.98138" stroke-linecap="square" stroke-miterlimit="10" stroke-linejoin="miter" fill="none" stroke="#999999" d="M-154.75009 132.51567-154.75423 151.57515"/>
<path transform="matrix(1,0,0,-1,320.003,187.43901)" stroke-width="4.98138" stroke-linecap="square" stroke-miterlimit="10" stroke-linejoin="miter" fill="none" stroke="#999999" d="M-45.51224 80.56973-45.50815 141.01204"/>
<path transform="matrix(1,0,0,-1,320.003,187.43901)" stroke-width="4.98138" stroke-linecap="square" stroke-miterlimit="10" stroke-linejoin="miter" fill="none" stroke="#999999" d="M38.68846 28.62799 38.69139 151.85143"/>
<path transform="matrix(1,0,0,-1,320.003,187.43901)" stroke-width="4.98138" stroke-linecap="square" stroke-miterlimit="10" stroke-linejoin="miter" fill="none" stroke="#999999" d="M113.67905-23.31374 113.68121 151.32593"/>
<path transform="matrix(1,0,0,-1,320.003,187.43901)" stroke-width="4.98138" stroke-linecap="square" stroke-miterlimit="10" stroke-linejoin="miter" fill="none" stroke="#999999" d="M186.80193-75.25548 186.80419 152.34986"/>
<path transform="matrix(1,0,0,-1,320.003,187.43901)" stroke-width="4.98138" stroke-linecap="square" stroke-miterlimit="10" stroke-linejoin="miter" fill="none" stroke="#999999" d="M265.63957-127.1972 265.64378 152.35016"/>
<path transform="matrix(1,0,0,-1,165.24301,27.363007)" d="M-45.21693-8.30194-40.76828 8.30194H45.21693L40.76828-8.30194Z" fill="#ffffff"/>
<path transform="matrix(1,0,0,-1,165.24301,27.363007)" stroke-width=".3985" stroke-linecap="butt" stroke-miterlimit="10" stroke-linejoin="miter" fill="none" stroke="#000000" d="M-45.21693-8.30194-40.76828 8.30194H45.21693L40.76828-8.30194Z"/>
<text xml:space="preserve" transform="matrix(1 0 -0 1 .000015258789 374.877)" font-size="9.9626" font-family="Computer Modern"><tspan y="-345.023" x="127.795">(</tspan></text>
<text xml:space="preserve" transform="matrix(1 0 -0 1 .000015258789 374.877)" font-size="9.9626" font-family="Computer Modern" font-style="italic"><tspan y="-345.023" x="131.67">T</tspan></text>
<text xml:space="preserve" transform="matrix(1 0 -0 1 .000015258789 374.877)" font-size="9.9626" font-family="Computer Modern" font-style="italic"><tspan y="-345.023" x="139.782">/</tspan></text>
<text xml:space="preserve" transform="matrix(1 0 -0 1 .000015258789 374.877)" font-size="9.9626" font-family="Computer Modern" font-style="italic"><tspan y="-345.023" x="144.763">W</tspan></text>
<text xml:space="preserve" transform="matrix(1 0 -0 1 .000015258789 374.877)" font-size="9.9626" font-family="Computer Modern"><tspan y="-345.023" x="155.782">)</tspan></text>
<text xml:space="preserve" transform="matrix(1 0 -0 1 .000015258789 374.877)" font-size="6.9738" font-family="Computer Modern"><tspan y="-343.52903" x="159.65599">0</tspan></text>
<text xml:space="preserve" transform="matrix(1 0 -0 1 .000015258789 374.877)" font-size="9.9626" font-family="Computer Modern"><tspan y="-345.023" x="163.859 168.29236">,(</tspan></text>
<text xml:space="preserve" transform="matrix(1 0 -0 1 .000015258789 374.877)" font-size="9.9626" font-family="Computer Modern" font-style="italic"><tspan y="-345.023" x="172.161">W</tspan></text>
<text xml:space="preserve" transform="matrix(1 0 -0 1 .000015258789 374.877)" font-size="9.9626" font-family="Computer Modern" font-style="italic"><tspan y="-345.023" x="183.179">/</tspan></text>
<text xml:space="preserve" transform="matrix(1 0 -0 1 .000015258789 374.877)" font-size="9.9626" font-family="Computer Modern" font-style="italic"><tspan y="-345.023" x="188.161">S</tspan></text>
<text xml:space="preserve" transform="matrix(1 0 -0 1 .000015258789 374.877)" font-size="9.9626" font-family="Computer Modern"><tspan y="-345.023" x="194.612">)</tspan></text>
<text xml:space="preserve" transform="matrix(1 0 -0 1 .000015258789 374.877)" font-size="6.9738" font-family="Computer Modern"><tspan y="-343.52903" x="198.487">0</tspan></text>
<path transform="matrix(1,0,0,-1,274.49003,27.363007)" d="M-43.6931-18.86249-33.58548 18.86249H43.6931L33.58548-18.86249Z" fill="#ffffff"/>
<path transform="matrix(1,0,0,-1,274.49003,27.363007)" stroke-width=".3985" stroke-linecap="butt" stroke-miterlimit="10" stroke-linejoin="miter" fill="none" stroke="#000000" d="M-43.6931-18.86249-33.58548 18.86249H43.6931L33.58548-18.86249Z"/>
<text xml:space="preserve" transform="matrix(1 0 -0 1 .000015258789 374.877)" font-size="9.9626" font-family="Computer Modern" font-style="italic"><tspan y="-352.176" x="249.93">c</tspan></text>
<text xml:space="preserve" transform="matrix(1 0 -0 1 .000015258789 374.877)" font-size="6.9738" font-family="Computer Modern" font-style="italic"><tspan y="-350.682" x="254.357">f</tspan></text>
<text xml:space="preserve" transform="matrix(1 0 -0 1 .000015258789 374.877)" font-size="9.9626" font-family="Computer Modern"><tspan y="-352.176" x="258.664">,</tspan></text>
<text xml:space="preserve" transform="matrix(1 0 -0 1 .000015258789 374.877)" font-size="9.9626" font-family="Computer Modern" font-style="italic"><tspan y="-352.176" x="263.091">S</tspan></text>
<text xml:space="preserve" transform="matrix(1 0 -0 1 .000015258789 374.877)" font-size="6.9738" font-family="Computer Modern"><tspan y="-350.682" x="268.626 273.48677 276.77839">wet</tspan></text>
<text xml:space="preserve" transform="matrix(1 0 -0 1 .000015258789 374.877)" font-size="9.9626" font-family="Computer Modern" font-style="italic"><tspan y="-352.176" x="279.948">/</tspan></text>
<text xml:space="preserve" transform="matrix(1 0 -0 1 .000015258789 374.877)" font-size="9.9626" font-family="Computer Modern" font-style="italic"><tspan y="-352.176" x="284.93">S</tspan></text>
<text xml:space="preserve" transform="matrix(1 0 -0 1 .000015258789 374.877)" font-size="6.9738" font-family="Computer Modern"><tspan y="-350.682" x="290.465 292.9965 296.28813">ref</tspan></text>
<text xml:space="preserve" transform="matrix(1 0 -0 1 .000015258789 374.877)" font-size="9.9626" font-family="Computer Modern" font-style="italic"><tspan y="-336.634" x="249.207 255.85205">AR</tspan></text>
<text xml:space="preserve" transform="matrix(1 0 -0 1 .000015258789 374.877)" font-size="9.9626" font-family="Computer Modern"><tspan y="-336.634" x="263.109">,</tspan></text>
<text xml:space="preserve" transform="matrix(1 0 -0 1 .000015258789 374.877)" font-size="9.9626" font-family="Computer Modern" font-style="italic"><tspan y="-336.634" x="267.53703">e</tspan></text>
<text xml:space="preserve" transform="matrix(1 0 -0 1 .000015258789 374.877)" font-size="9.9626" font-family="Computer Modern"><tspan y="-336.634" x="272.64">,</tspan></text>
<text xml:space="preserve" transform="matrix(1 0 -0 1 .000015258789 374.877)" font-size="9.9626" font-family="Computer Modern" font-style="italic"><tspan y="-336.634" x="277.06803">C</tspan></text>
<text xml:space="preserve" transform="matrix(1 0 -0 1 .000015258789 374.877)" font-size="6.9738" font-family="Computer Modern" font-style="italic"><tspan y="-335.14" x="283.433">L</tspan></text>
<text xml:space="preserve" transform="matrix(1 0 -0 1 .000015258789 374.877)" font-size="4.9813" font-family="Computer Modern" font-style="italic"><tspan y="-334.144" x="287.46504">&#x03b1;</tspan></text>
<text xml:space="preserve" transform="matrix(1 0 -0 1 .000015258789 374.877)" font-size="4.9813" font-family="Computer Modern"><tspan y="-334.144" x="292.01405 296.1286">=0</tspan></text>
<path transform="matrix(1,0,0,-1,358.691,27.363007)" d="M-29.99939-8.02518-25.69904 8.02518H29.99939L25.69904-8.02518Z" fill="#ffffff"/>
<path transform="matrix(1,0,0,-1,358.691,27.363007)" stroke-width=".3985" stroke-linecap="butt" stroke-miterlimit="10" stroke-linejoin="miter" fill="none" stroke="#000000" d="M-29.99939-8.02518-25.69904 8.02518H29.99939L25.69904-8.02518Z"/>
<text xml:space="preserve" transform="matrix(1 0 -0 1 .000030517579 374.87699)" font-size="9.9626" font-family="Computer Modern" font-style="italic"><tspan y="-345.3" x="336.313">C</tspan></text>
<text xml:space="preserve" transform="matrix(1 0 -0 1 .000030517579 374.87699)" font-size="6.9738" font-family="Computer Modern" font-style="italic"><tspan y="-343.805" x="342.67799">L</tspan></text>
<text xml:space="preserve" transform="matrix(1 0 -0 1 .000030517579 374.87699)" font-size="4.9813" font-family="Computer Modern"><tspan y="-342.809" x="346.70899 350.9132 353.45368">max</tspan></text>
<text xml:space="preserve" transform="matrix(1 0 -0 1 .000030517579 374.87699)" font-size="9.9626" font-family="Computer Modern"><tspan y="-345.3" x="356.88999">,</tspan></text>
<text xml:space="preserve" transform="matrix(1 0 -0 1 .000030517579 374.87699)" font-size="9.9626" font-family="Computer Modern" font-style="italic"><tspan y="-345.3" x="361.318">V</tspan></text>
<text xml:space="preserve" transform="matrix(1 0 -0 1 .000030517579 374.87699)" font-size="6.9738" font-family="Computer Modern"><tspan y="-343.805" x="367.96 370.79835 373.4763 377.03294 378.80427">stall</tspan></text>
<path transform="matrix(1,0,0,-1,433.681,27.363007)" d="M-18.97295-8.55101-14.39082 8.55101H18.97295L14.39082-8.55101Z" fill="#ffffff"/>
<path transform="matrix(1,0,0,-1,433.681,27.363007)" stroke-width=".3985" stroke-linecap="butt" stroke-miterlimit="10" stroke-linejoin="miter" fill="none" stroke="#000000" d="M-18.97295-8.55101-14.39082 8.55101H18.97295L14.39082-8.55101Z"/>
<text xml:space="preserve" transform="matrix(1 0 -0 1 0 374.87699)" font-size="9.9626" font-family="Computer Modern" font-style="italic"><tspan y="-345.826" x="422.611">V</tspan></text>
<text xml:space="preserve" transform="matrix(1 0 -0 1 0 374.87699)" font-size="6.9738" font-family="Computer Modern" font-style="italic"><tspan y="-344.02699" x="429.25199">R</tspan></text>
<text xml:space="preserve" transform="matrix(1 0 -0 1 0 374.87699)" font-size="6.9738" font-family="Computer Modern" font-style="italic"><tspan y="-344.02699" x="434.61299">/</tspan></text>
<text xml:space="preserve" transform="matrix(1 0 -0 1 0 374.87699)" font-size="6.9738" font-family="Computer Modern" font-style="italic"><tspan y="-344.02699" x="438.69499">C</tspan></text>
<path transform="matrix(1,0,0,-1,506.803,27.363007)" d="M-19.69963-7.52704-15.66621 7.52704H19.69963L15.66621-7.52704Z" fill="#ffffff"/>
<path transform="matrix(1,0,0,-1,506.803,27.363007)" stroke-width=".3985" stroke-linecap="butt" stroke-miterlimit="10" stroke-linejoin="miter" fill="none" stroke="#000000" d="M-19.69963-7.52704-15.66621 7.52704H19.69963L15.66621-7.52704Z"/>
<text xml:space="preserve" transform="matrix(1 0 -0 1 0 374.877)" font-size="9.9626" font-family="Computer Modern" font-style="italic"><tspan y="-344.802" x="494.457">V</tspan></text>
<text xml:space="preserve" transform="matrix(1 0 -0 1 0 374.877)" font-size="6.9738" font-family="Computer Modern"><tspan y="-343.307" x="501.099 504.39064 506.92213 510.75074 512.5221 515.3604">cruise</tspan></text>
<path transform="matrix(1,0,0,-1,585.63906,27.363007)" d="M-27.05669-7.52704-23.02327 7.52704H27.05669L23.02327-7.52704Z" fill="#ffffff"/>
<path transform="matrix(1,0,0,-1,585.63906,27.363007)" stroke-width=".3985" stroke-linecap="butt" stroke-miterlimit="10" stroke-linejoin="miter" fill="none" stroke="#000000" d="M-27.05669-7.52704-23.02327 7.52704H27.05669L23.02327-7.52704Z"/>
<text xml:space="preserve" transform="matrix(1 0 -0 1 0 374.877)" font-size="9.9626" font-family="Computer Modern" font-weight="bold"><tspan y="-344.802" x="565.937">V</tspan></text>
<text xml:space="preserve" transform="matrix(1 0 -0 1 0 374.877)" font-size="6.9738" font-family="Computer Modern"><tspan y="-343.307" x="573.24307 576.9461 579.624 583.45266 586.74429 589.27578">others</tspan></text>
<text xml:space="preserve" transform="matrix(1 0 -0 1 0 374.877)" font-size="9.9626" font-family="Computer Modern"><tspan y="-344.802" x="592.61209 597.0454 599.815 602.5846">,...</tspan></text>
<path transform="matrix(1,0,0,-1,54.09503,76.647)" d="M-45.59396-8.30194-41.14531 8.30194H45.59396L41.14531-8.30194Z" fill="#ffffff"/>
<path transform="matrix(1,0,0,-1,54.09503,76.647)" stroke-width=".3985" stroke-linecap="butt" stroke-miterlimit="10" stroke-linejoin="miter" fill="none" stroke="#000000" d="M-45.59396-8.30194-41.14531 8.30194H45.59396L41.14531-8.30194Z"/>
<text xml:space="preserve" transform="matrix(1 0 -0 1 .000030517579 374.877)" font-size="9.9626" font-family="Computer Modern"><tspan y="-295.739" x="16.27">(</tspan></text>
<text xml:space="preserve" transform="matrix(1 0 -0 1 .000030517579 374.877)" font-size="9.9626" font-family="Computer Modern" font-style="italic"><tspan y="-295.739" x="20.145">T</tspan></text>
<text xml:space="preserve" transform="matrix(1 0 -0 1 .000030517579 374.877)" font-size="9.9626" font-family="Computer Modern" font-style="italic"><tspan y="-295.739" x="28.257">/</tspan></text>
<text xml:space="preserve" transform="matrix(1 0 -0 1 .000030517579 374.877)" font-size="9.9626" font-family="Computer Modern" font-style="italic"><tspan y="-295.739" x="33.238">W</tspan></text>
<text xml:space="preserve" transform="matrix(1 0 -0 1 .000030517579 374.877)" font-size="9.9626" font-family="Computer Modern"><tspan y="-295.739" x="44.255998">)</tspan></text>
<text xml:space="preserve" transform="matrix(1 0 -0 1 .000030517579 374.877)" font-size="6.9738" font-family="Computer Modern" font-style="italic"><tspan y="-299.354" x="48.130998">&#x2217;</tspan></text>
<text xml:space="preserve" transform="matrix(1 0 -0 1 .000030517579 374.877)" font-size="9.9626" font-family="Computer Modern"><tspan y="-295.739" x="52.711 57.144357">,(</tspan></text>
<text xml:space="preserve" transform="matrix(1 0 -0 1 .000030517579 374.877)" font-size="9.9626" font-family="Computer Modern" font-style="italic"><tspan y="-295.739" x="61.013">W</tspan></text>
<text xml:space="preserve" transform="matrix(1 0 -0 1 .000030517579 374.877)" font-size="9.9626" font-family="Computer Modern" font-style="italic"><tspan y="-295.739" x="72.031">/</tspan></text>
<text xml:space="preserve" transform="matrix(1 0 -0 1 .000030517579 374.877)" font-size="9.9626" font-family="Computer Modern" font-style="italic"><tspan y="-295.739" x="77.012">S</tspan></text>
<text xml:space="preserve" transform="matrix(1 0 -0 1 .000030517579 374.877)" font-size="9.9626" font-family="Computer Modern"><tspan y="-295.739" x="83.464008">)</tspan></text>
<text xml:space="preserve" transform="matrix(1 0 -0 1 .000030517579 374.877)" font-size="6.9738" font-family="Computer Modern" font-style="italic"><tspan y="-299.354" x="87.339008">&#x2217;</tspan></text>
<path transform="matrix(1,0,0,-1,165.24404,76.647)" d="M0 21.51958H37.96823C49.85332 21.51958 59.48781 11.88509 59.48781 0 59.48781-11.88509 49.85332-21.51958 37.96823-21.51958H-37.96823C-49.85332-21.51958-59.48781-11.88509-59.48781 0-59.48781 11.88509-49.85332 21.51958-37.96823 21.51958Z" fill="#b3d5ed"/>
<path transform="matrix(1,0,0,-1,165.24404,76.647)" stroke-width=".3985" stroke-linecap="butt" stroke-miterlimit="10" stroke-linejoin="miter" fill="none" stroke="#000000" d="M0 21.51958H37.96823C49.85332 21.51958 59.48781 11.88509 59.48781 0 59.48781-11.88509 49.85332-21.51958 37.96823-21.51958H-37.96823C-49.85332-21.51958-59.48781-11.88509-59.48781 0-59.48781 11.88509-49.85332 21.51958-37.96823 21.51958Z"/>
<text xml:space="preserve" transform="matrix(1 0 -0 1 .0010299683 374.877)" font-size="9.9626" font-family="Computer Modern"><tspan y="-302.892" x="123.35">(</tspan></text>
<text xml:space="preserve" transform="matrix(1 0 -0 1 .0010299683 374.877)" font-size="9.9626" font-family="Computer Modern" font-style="italic"><tspan y="-302.892" x="127.225">T</tspan></text>
<text xml:space="preserve" transform="matrix(1 0 -0 1 .0010299683 374.877)" font-size="9.9626" font-family="Computer Modern" font-style="italic"><tspan y="-302.892" x="135.337">/</tspan></text>
<text xml:space="preserve" transform="matrix(1 0 -0 1 .0010299683 374.877)" font-size="9.9626" font-family="Computer Modern" font-style="italic"><tspan y="-302.892" x="140.31801">W</tspan></text>
<text xml:space="preserve" transform="matrix(1 0 -0 1 .0010299683 374.877)" font-size="9.9626" font-family="Computer Modern"><tspan y="-302.892" x="151.33602 158.52902 163.32103 168.4717 176.94988">)and(</tspan></text>
<text xml:space="preserve" transform="matrix(1 0 -0 1 .0010299683 374.877)" font-size="9.9626" font-family="Computer Modern" font-style="italic"><tspan y="-302.892" x="180.80902">W</tspan></text>
<text xml:space="preserve" transform="matrix(1 0 -0 1 .0010299683 374.877)" font-size="9.9626" font-family="Computer Modern" font-style="italic"><tspan y="-302.892" x="191.82703">/</tspan></text>
<text xml:space="preserve" transform="matrix(1 0 -0 1 .0010299683 374.877)" font-size="9.9626" font-family="Computer Modern" font-style="italic"><tspan y="-302.892" x="196.80902">S</tspan></text>
<text xml:space="preserve" transform="matrix(1 0 -0 1 .0010299683 374.877)" font-size="9.9626" font-family="Computer Modern"><tspan y="-302.892" x="203.26102">)</tspan><tspan y="-287.351" x="138.25402 145.58649 150.73715 154.33365 156.7147 164.62502 167.00608 171.3398 176.1318 179.7283 182.10936 187.09066">Optimization</tspan></text>
<path transform="matrix(1,0,0,-1,440.11628,83.081279)" d="M-22.86945-8.30194-18.42079 8.30194H22.86945L18.42079-8.30194Z" fill="#e5e6e5"/>
<path transform="matrix(1,0,0,-1,440.11628,83.081279)" stroke-width=".3985" stroke-linecap="butt" stroke-miterlimit="10" stroke-linejoin="miter" fill="none" stroke="#000000" d="M-22.86945-8.30194-18.42079 8.30194H22.86945L18.42079-8.30194Z"/>
<path transform="matrix(1,0,0,-1,436.89915,79.864139)" d="M-22.86945-8.30194-18.42079 8.30194H22.86945L18.42079-8.30194Z" fill="#e5e6e5"/>
<path transform="matrix(1,0,0,-1,436.89915,79.864139)" stroke-width=".3985" stroke-linecap="butt" stroke-miterlimit="10" stroke-linejoin="miter" fill="none" stroke="#000000" d="M-22.86945-8.30194-18.42079 8.30194H22.86945L18.42079-8.30194Z"/>
<path transform="matrix(1,0,0,-1,433.682,76.647)" d="M-22.86945-8.30194-18.42079 8.30194H22.86945L18.42079-8.30194Z" fill="#e5e6e5"/>
<path transform="matrix(1,0,0,-1,433.682,76.647)" stroke-width=".3985" stroke-linecap="butt" stroke-miterlimit="10" stroke-linejoin="miter" fill="none" stroke="#000000" d="M-22.86945-8.30194-18.42079 8.30194H22.86945L18.42079-8.30194Z"/>
<text xml:space="preserve" transform="matrix(1 0 -0 1 .0010070801 374.877)" font-size="9.9626" font-family="Computer Modern"><tspan y="-295.739" x="418.581">(</tspan></text>
<text xml:space="preserve" transform="matrix(1 0 -0 1 .0010070801 374.877)" font-size="9.9626" font-family="Computer Modern" font-style="italic"><tspan y="-295.739" x="422.455">W</tspan></text>
<text xml:space="preserve" transform="matrix(1 0 -0 1 .0010070801 374.877)" font-size="9.9626" font-family="Computer Modern" font-style="italic"><tspan y="-295.739" x="433.473">/</tspan></text>
<text xml:space="preserve" transform="matrix(1 0 -0 1 .0010070801 374.877)" font-size="9.9626" font-family="Computer Modern" font-style="italic"><tspan y="-295.739" x="438.45399">S</tspan></text>
<text xml:space="preserve" transform="matrix(1 0 -0 1 .0010070801 374.877)" font-size="9.9626" font-family="Computer Modern"><tspan y="-295.739" x="444.90599">)</tspan></text>
<path transform="matrix(1,0,0,-1,506.80403,76.647)" d="M-22.86945-8.30194-18.42079 8.30194H22.86945L18.42079-8.30194Z" fill="#e5e6e5"/>
<path transform="matrix(1,0,0,-1,506.80403,76.647)" stroke-width=".3985" stroke-linecap="butt" stroke-miterlimit="10" stroke-linejoin="miter" fill="none" stroke="#000000" d="M-22.86945-8.30194-18.42079 8.30194H22.86945L18.42079-8.30194Z"/>
<text xml:space="preserve" transform="matrix(1 0 -0 1 .0010070801 374.877)" font-size="9.9626" font-family="Computer Modern"><tspan y="-295.739" x="491.703">(</tspan></text>
<text xml:space="preserve" transform="matrix(1 0 -0 1 .0010070801 374.877)" font-size="9.9626" font-family="Computer Modern" font-style="italic"><tspan y="-295.739" x="495.577">W</tspan></text>
<text xml:space="preserve" transform="matrix(1 0 -0 1 .0010070801 374.877)" font-size="9.9626" font-family="Computer Modern" font-style="italic"><tspan y="-295.739" x="506.595">/</tspan></text>
<text xml:space="preserve" transform="matrix(1 0 -0 1 .0010070801 374.877)" font-size="9.9626" font-family="Computer Modern" font-style="italic"><tspan y="-295.739" x="511.576">S</tspan></text>
<text xml:space="preserve" transform="matrix(1 0 -0 1 .0010070801 374.877)" font-size="9.9626" font-family="Computer Modern"><tspan y="-295.739" x="518.028">)</tspan></text>
<path transform="matrix(1,0,0,-1,592.0743,83.081279)" d="M-22.86945-8.30194-18.42079 8.30194H22.86945L18.42079-8.30194Z" fill="#e5e6e5"/>
<path transform="matrix(1,0,0,-1,592.0743,83.081279)" stroke-width=".3985" stroke-linecap="butt" stroke-miterlimit="10" stroke-linejoin="miter" fill="none" stroke="#000000" d="M-22.86945-8.30194-18.42079 8.30194H22.86945L18.42079-8.30194Z"/>
<path transform="matrix(1,0,0,-1,588.8571,79.864139)" d="M-22.86945-8.30194-18.42079 8.30194H22.86945L18.42079-8.30194Z" fill="#e5e6e5"/>
<path transform="matrix(1,0,0,-1,588.8571,79.864139)" stroke-width=".3985" stroke-linecap="butt" stroke-miterlimit="10" stroke-linejoin="miter" fill="none" stroke="#000000" d="M-22.86945-8.30194-18.42079 8.30194H22.86945L18.42079-8.30194Z"/>
<path transform="matrix(1,0,0,-1,585.64,76.647)" d="M-22.86945-8.30194-18.42079 8.30194H22.86945L18.42079-8.30194Z" fill="#e5e6e5"/>
<path transform="matrix(1,0,0,-1,585.64,76.647)" stroke-width=".3985" stroke-linecap="butt" stroke-miterlimit="10" stroke-linejoin="miter" fill="none" stroke="#000000" d="M-22.86945-8.30194-18.42079 8.30194H22.86945L18.42079-8.30194Z"/>
<text xml:space="preserve" transform="matrix(1 0 -0 1 .0010375977 374.877)" font-size="9.9626" font-family="Computer Modern"><tspan y="-295.739" x="570.539">(</tspan></text>
<text xml:space="preserve" transform="matrix(1 0 -0 1 .0010375977 374.877)" font-size="9.9626" font-family="Computer Modern" font-style="italic"><tspan y="-295.739" x="574.414">W</tspan></text>
<text xml:space="preserve" transform="matrix(1 0 -0 1 .0010375977 374.877)" font-size="9.9626" font-family="Computer Modern" font-style="italic"><tspan y="-295.739" x="585.432">/</tspan></text>
<text xml:space="preserve" transform="matrix(1 0 -0 1 .0010375977 374.877)" font-size="9.9626" font-family="Computer Modern" font-style="italic"><tspan y="-295.739" x="590.413">S</tspan></text>
<text xml:space="preserve" transform="matrix(1 0 -0 1 .0010375977 374.877)" font-size="9.9626" font-family="Computer Modern"><tspan y="-295.739" x="596.86508">)</tspan></text>
<path transform="matrix(1,0,0,-1,274.49104,128.58802)" d="M-21.64136-21.51959H21.64137V21.51961H-21.64136Z" fill="#a3da97"/>
<path transform="matrix(1,0,0,-1,274.49104,128.58802)" stroke-width=".3985" stroke-linecap="butt" stroke-miterlimit="10" stroke-linejoin="miter" fill="none" stroke="#000000" d="M-21.64136-21.51959H21.64137V21.51961H-21.64136Z"/>
<text xml:space="preserve" transform="matrix(1 0 -0 1 .0010375977 374.877)" font-size="9.9626" font-family="Computer Modern"><tspan y="-250.951" x="264.306 271.499 274.9062 279.6982">Drag</tspan><tspan y="-235.409" x="263.808 269.89515 274.87644 277.2575 281.77058">Polar</tspan></text>
<path transform="matrix(1,0,0,-1,358.69203,128.58802)" d="M-20.36511-8.02518-16.06476 8.02518H20.36511L16.06476-8.02518Z" fill="#e5e6e5"/>
<path transform="matrix(1,0,0,-1,358.69203,128.58802)" stroke-width=".3985" stroke-linecap="butt" stroke-miterlimit="10" stroke-linejoin="miter" fill="none" stroke="#000000" d="M-20.36511-8.02518-16.06476 8.02518H20.36511L16.06476-8.02518Z"/>
<text xml:space="preserve" transform="matrix(1 0 -0 1 .0010375977 374.877)" font-size="9.9626" font-family="Computer Modern" font-style="italic"><tspan y="-244.075" x="345.947">C</tspan></text>
<text xml:space="preserve" transform="matrix(1 0 -0 1 .0010375977 374.877)" font-size="6.9738" font-family="Computer Modern" font-style="italic"><tspan y="-242.58" x="352.31199">D</tspan></text>
<text xml:space="preserve" transform="matrix(1 0 -0 1 .0010375977 374.877)" font-size="4.9813" font-family="Computer Modern"><tspan y="-241.584" x="357.663">0</tspan></text>
<text xml:space="preserve" transform="matrix(1 0 -0 1 .0010375977 374.877)" font-size="9.9626" font-family="Computer Modern"><tspan y="-244.075" x="361.306">,</tspan></text>
<text xml:space="preserve" transform="matrix(1 0 -0 1 .0010375977 374.877)" font-size="9.9626" font-family="Computer Modern" font-style="italic"><tspan y="-244.075" x="365.734">k</tspan></text>
<path transform="matrix(1,0,0,-1,440.11628,135.02228)" d="M-20.36511-8.02518-16.06476 8.02518H20.36511L16.06476-8.02518Z" fill="#e5e6e5"/>
<path transform="matrix(1,0,0,-1,440.11628,135.02228)" stroke-width=".3985" stroke-linecap="butt" stroke-miterlimit="10" stroke-linejoin="miter" fill="none" stroke="#000000" d="M-20.36511-8.02518-16.06476 8.02518H20.36511L16.06476-8.02518Z"/>
<path transform="matrix(1,0,0,-1,436.89915,131.80515)" d="M-20.36511-8.02518-16.06476 8.02518H20.36511L16.06476-8.02518Z" fill="#e5e6e5"/>
<path transform="matrix(1,0,0,-1,436.89915,131.80515)" stroke-width=".3985" stroke-linecap="butt" stroke-miterlimit="10" stroke-linejoin="miter" fill="none" stroke="#000000" d="M-20.36511-8.02518-16.06476 8.02518H20.36511L16.06476-8.02518Z"/>
<path transform="matrix(1,0,0,-1,433.682,128.58802)" d="M-20.36511-8.02518-16.06476 8.02518H20.36511L16.06476-8.02518Z" fill="#e5e6e5"/>
<path transform="matrix(1,0,0,-1,433.682,128.58802)" stroke-width=".3985" stroke-linecap="butt" stroke-miterlimit="10" stroke-linejoin="miter" fill="none" stroke="#000000" d="M-20.36511-8.02518-16.06476 8.02518H20.36511L16.06476-8.02518Z"/>
<text xml:space="preserve" transform="matrix(1 0 -0 1 .0010070801 374.877)" font-size="9.9626" font-family="Computer Modern" font-style="italic"><tspan y="-244.075" x="420.937">C</tspan></text>
<text xml:space="preserve" transform="matrix(1 0 -0 1 .0010070801 374.877)" font-size="6.9738" font-family="Computer Modern" font-style="italic"><tspan y="-242.58" x="427.302">D</tspan></text>
<text xml:space="preserve" transform="matrix(1 0 -0 1 .0010070801 374.877)" font-size="4.9813" font-family="Computer Modern"><tspan y="-241.584" x="432.653">0</tspan></text>
<text xml:space="preserve" transform="matrix(1 0 -0 1 .0010070801 374.877)" font-size="9.9626" font-family="Computer Modern"><tspan y="-244.075" x="436.29603">,</tspan></text>
<text xml:space="preserve" transform="matrix(1 0 -0 1 .0010070801 374.877)" font-size="9.9626" font-family="Computer Modern" font-style="italic"><tspan y="-244.075" x="440.72404">k</tspan></text>
<path transform="matrix(1,0,0,-1,506.80403,128.58802)" d="M-20.36511-8.02518-16.06476 8.02518H20.36511L16.06476-8.02518Z" fill="#e5e6e5"/>
<path transform="matrix(1,0,0,-1,506.80403,128.58802)" stroke-width=".3985" stroke-linecap="butt" stroke-miterlimit="10" stroke-linejoin="miter" fill="none" stroke="#000000" d="M-20.36511-8.02518-16.06476 8.02518H20.36511L16.06476-8.02518Z"/>
<text xml:space="preserve" transform="matrix(1 0 -0 1 .0010375977 374.877)" font-size="9.9626" font-family="Computer Modern" font-style="italic"><tspan y="-244.075" x="494.059">C</tspan></text>
<text xml:space="preserve" transform="matrix(1 0 -0 1 .0010375977 374.877)" font-size="6.9738" font-family="Computer Modern" font-style="italic"><tspan y="-242.58" x="500.42399">D</tspan></text>
<text xml:space="preserve" transform="matrix(1 0 -0 1 .0010375977 374.877)" font-size="4.9813" font-family="Computer Modern"><tspan y="-241.584" x="505.775">0</tspan></text>
<text xml:space="preserve" transform="matrix(1 0 -0 1 .0010375977 374.877)" font-size="9.9626" font-family="Computer Modern"><tspan y="-244.075" x="509.418">,</tspan></text>
<text xml:space="preserve" transform="matrix(1 0 -0 1 .0010375977 374.877)" font-size="9.9626" font-family="Computer Modern" font-style="italic"><tspan y="-244.075" x="513.846">k</tspan></text>
<path transform="matrix(1,0,0,-1,592.0743,135.02228)" d="M-20.36511-8.02518-16.06476 8.02518H20.36511L16.06476-8.02518Z" fill="#e5e6e5"/>
<path transform="matrix(1,0,0,-1,592.0743,135.02228)" stroke-width=".3985" stroke-linecap="butt" stroke-miterlimit="10" stroke-linejoin="miter" fill="none" stroke="#000000" d="M-20.36511-8.02518-16.06476 8.02518H20.36511L16.06476-8.02518Z"/>
<path transform="matrix(1,0,0,-1,588.8571,131.80515)" d="M-20.36511-8.02518-16.06476 8.02518H20.36511L16.06476-8.02518Z" fill="#e5e6e5"/>
<path transform="matrix(1,0,0,-1,588.8571,131.80515)" stroke-width=".3985" stroke-linecap="butt" stroke-miterlimit="10" stroke-linejoin="miter" fill="none" stroke="#000000" d="M-20.36511-8.02518-16.06476 8.02518H20.36511L16.06476-8.02518Z"/>
<path transform="matrix(1,0,0,-1,585.64,128.58802)" d="M-20.36511-8.02518-16.06476 8.02518H20.36511L16.06476-8.02518Z" fill="#e5e6e5"/>
<path transform="matrix(1,0,0,-1,585.64,128.58802)" stroke-width=".3985" stroke-linecap="butt" stroke-miterlimit="10" stroke-linejoin="miter" fill="none" stroke="#000000" d="M-20.36511-8.02518-16.06476 8.02518H20.36511L16.06476-8.02518Z"/>
<text xml:space="preserve" transform="matrix(1 0 -0 1 .0009765625 374.877)" font-size="9.9626" font-family="Computer Modern" font-style="italic"><tspan y="-244.075" x="572.895">C</tspan></text>
<text xml:space="preserve" transform="matrix(1 0 -0 1 .0009765625 374.877)" font-size="6.9738" font-family="Computer Modern" font-style="italic"><tspan y="-242.58" x="579.26">D</tspan></text>
<text xml:space="preserve" transform="matrix(1 0 -0 1 .0009765625 374.877)" font-size="4.9813" font-family="Computer Modern"><tspan y="-241.584" x="584.612">0</tspan></text>
<text xml:space="preserve" transform="matrix(1 0 -0 1 .0009765625 374.877)" font-size="9.9626" font-family="Computer Modern"><tspan y="-244.075" x="588.254">,</tspan></text>
<text xml:space="preserve" transform="matrix(1 0 -0 1 .0009765625 374.877)" font-size="9.9626" font-family="Computer Modern" font-style="italic"><tspan y="-244.075" x="592.682">k</tspan></text>
<path transform="matrix(1,0,0,-1,165.24402,180.52902)" d="M-29.42418-8.30194-24.97552 8.30194H29.42418L24.97552-8.30194Z" fill="#e5e6e5"/>
<path transform="matrix(1,0,0,-1,165.24402,180.52902)" stroke-width=".3985" stroke-linecap="butt" stroke-miterlimit="10" stroke-linejoin="miter" fill="none" stroke="#000000" d="M-29.42418-8.30194-24.97552 8.30194H29.42418L24.97552-8.30194Z"/>
<text xml:space="preserve" transform="matrix(1 0 -0 1 .0010223389 374.877)" font-size="9.9626" font-family="Computer Modern"><tspan y="-191.857" x="143.588">(</tspan></text>
<text xml:space="preserve" transform="matrix(1 0 -0 1 .0010223389 374.877)" font-size="9.9626" font-family="Computer Modern" font-style="italic"><tspan y="-191.857" x="147.46199">W</tspan></text>
<text xml:space="preserve" transform="matrix(1 0 -0 1 .0010223389 374.877)" font-size="9.9626" font-family="Computer Modern" font-style="italic"><tspan y="-191.857" x="158.48099">/</tspan></text>
<text xml:space="preserve" transform="matrix(1 0 -0 1 .0010223389 374.877)" font-size="9.9626" font-family="Computer Modern" font-style="italic"><tspan y="-191.857" x="163.46199">S</tspan></text>
<text xml:space="preserve" transform="matrix(1 0 -0 1 .0010223389 374.877)" font-size="9.9626" font-family="Computer Modern"><tspan y="-191.857" x="169.91399">)</tspan></text>
<text xml:space="preserve" transform="matrix(1 0 -0 1 .0010223389 374.877)" font-size="6.9738" font-family="Computer Modern"><tspan y="-190.36299" x="173.78798 176.62631 179.30425 182.86089 184.63224">stall</tspan></text>
<path transform="matrix(1,0,0,-1,358.69203,180.52902)" d="M-34.44077-21.51959H34.44076V21.51961H-34.44077Z" fill="#ffb1ae"/>
<path transform="matrix(1,0,0,-1,358.69203,180.52902)" stroke-width=".3985" stroke-linecap="butt" stroke-miterlimit="10" stroke-linejoin="miter" fill="none" stroke="#000000" d="M-34.44077-21.51959H34.44076V21.51961H-34.44077Z"/>
<text xml:space="preserve" transform="matrix(1 0 -0 1 .0010070801 374.877)" font-size="9.9626" font-family="Computer Modern"><tspan y="-199.01" x="335.209 340.74824 344.34474 349.13676 351.51783 357.21644 362.75566 368.18528 372.60868 377.03208">StallSpeed</tspan><tspan y="-183.46799" x="337.07704 343.4431 348.4244 353.57508 357.39076 360.98725 364.39445 369.18647 371.56755 376.7182">Constraint</tspan></text>
<path transform="matrix(1,0,0,-1,171.67829,238.9043)" d="M-32.21829-8.30194-27.76962 8.30194H32.21829L27.76962-8.30194Z" fill="#e5e6e5"/>
<path transform="matrix(1,0,0,-1,171.67829,238.9043)" stroke-width=".3985" stroke-linecap="butt" stroke-miterlimit="10" stroke-linejoin="miter" fill="none" stroke="#000000" d="M-32.21829-8.30194-27.76962 8.30194H32.21829L27.76962-8.30194Z"/>
<path transform="matrix(1,0,0,-1,168.46115,235.68717)" d="M-32.21829-8.30194-27.76962 8.30194H32.21829L27.76962-8.30194Z" fill="#e5e6e5"/>
<path transform="matrix(1,0,0,-1,168.46115,235.68717)" stroke-width=".3985" stroke-linecap="butt" stroke-miterlimit="10" stroke-linejoin="miter" fill="none" stroke="#000000" d="M-32.21829-8.30194-27.76962 8.30194H32.21829L27.76962-8.30194Z"/>
<path transform="matrix(1,0,0,-1,165.24402,232.47003)" d="M-32.21829-8.30194-27.76962 8.30194H32.21829L27.76962-8.30194Z" fill="#e5e6e5"/>
<path transform="matrix(1,0,0,-1,165.24402,232.47003)" stroke-width=".3985" stroke-linecap="butt" stroke-miterlimit="10" stroke-linejoin="miter" fill="none" stroke="#000000" d="M-32.21829-8.30194-27.76962 8.30194H32.21829L27.76962-8.30194Z"/>
<text xml:space="preserve" transform="matrix(1 0 -0 1 .0010070801 374.877)" font-size="9.9626" font-family="Computer Modern"><tspan y="-139.916" x="140.794">(</tspan></text>
<text xml:space="preserve" transform="matrix(1 0 -0 1 .0010070801 374.877)" font-size="9.9626" font-family="Computer Modern" font-style="italic"><tspan y="-139.916" x="144.668">T</tspan></text>
<text xml:space="preserve" transform="matrix(1 0 -0 1 .0010070801 374.877)" font-size="9.9626" font-family="Computer Modern" font-style="italic"><tspan y="-139.916" x="152.781">/</tspan></text>
<text xml:space="preserve" transform="matrix(1 0 -0 1 .0010070801 374.877)" font-size="9.9626" font-family="Computer Modern" font-style="italic"><tspan y="-139.916" x="157.76201">W</tspan></text>
<text xml:space="preserve" transform="matrix(1 0 -0 1 .0010070801 374.877)" font-size="9.9626" font-family="Computer Modern"><tspan y="-139.916" x="168.78002">)</tspan></text>
<text xml:space="preserve" transform="matrix(1 0 -0 1 .0010070801 374.877)" font-size="6.9738" font-family="Computer Modern"><tspan y="-138.422" x="172.65502 175.94666 177.718 179.48935 185.37525">climb</tspan></text>
<path transform="matrix(1,0,0,-1,440.11628,238.9043)" d="M-34.48227-21.51959H34.482278V21.51961H-34.48227Z" fill="#ffb1ae"/>
<path transform="matrix(1,0,0,-1,440.11628,238.9043)" stroke-width=".3985" stroke-linecap="butt" stroke-miterlimit="10" stroke-linejoin="miter" fill="none" stroke="#000000" d="M-34.48227-21.51959H34.482278V21.51961H-34.48227Z"/>
<path transform="matrix(1,0,0,-1,436.89915,235.68717)" d="M-34.48227-21.51959H34.482278V21.51961H-34.48227Z" fill="#ffb1ae"/>
<path transform="matrix(1,0,0,-1,436.89915,235.68717)" stroke-width=".3985" stroke-linecap="butt" stroke-miterlimit="10" stroke-linejoin="miter" fill="none" stroke="#000000" d="M-34.48227-21.51959H34.482278V21.51961H-34.48227Z"/>
<path transform="matrix(1,0,0,-1,433.682,232.47003)" d="M-34.48227-21.51959H34.482278V21.51961H-34.48227Z" fill="#ffb1ae"/>
<path transform="matrix(1,0,0,-1,433.682,232.47003)" stroke-width=".3985" stroke-linecap="butt" stroke-miterlimit="10" stroke-linejoin="miter" fill="none" stroke="#000000" d="M-34.48227-21.51959H34.482278V21.51961H-34.48227Z"/>
<text xml:space="preserve" transform="matrix(1 0 -0 1 .0010070801 374.877)" font-size="9.9626" font-family="Computer Modern"><tspan y="-147.069" x="421.587 427.9531 430.33418 432.71525 440.62556">Climb</tspan><tspan y="-131.52701" x="410.15803 416.5241 421.5054 426.65608 430.47175 434.06825 437.47544 442.26747 444.64854 449.7992 453.3957">Constraints</tspan></text>
<path transform="matrix(1,0,0,-1,165.24402,284.41105)" d="M-32.7244-8.30194-28.27573 8.30194H32.7244L28.27573-8.30194Z" fill="#e5e6e5"/>
<path transform="matrix(1,0,0,-1,165.24402,284.41105)" stroke-width=".3985" stroke-linecap="butt" stroke-miterlimit="10" stroke-linejoin="miter" fill="none" stroke="#000000" d="M-32.7244-8.30194-28.27573 8.30194H32.7244L28.27573-8.30194Z"/>
<text xml:space="preserve" transform="matrix(1 0 -0 1 .0010223389 374.87705)" font-size="9.9626" font-family="Computer Modern"><tspan y="-87.975" x="140.288">(</tspan></text>
<text xml:space="preserve" transform="matrix(1 0 -0 1 .0010223389 374.87705)" font-size="9.9626" font-family="Computer Modern" font-style="italic"><tspan y="-87.975" x="144.16199">T</tspan></text>
<text xml:space="preserve" transform="matrix(1 0 -0 1 .0010223389 374.87705)" font-size="9.9626" font-family="Computer Modern" font-style="italic"><tspan y="-87.975" x="152.275">/</tspan></text>
<text xml:space="preserve" transform="matrix(1 0 -0 1 .0010223389 374.87705)" font-size="9.9626" font-family="Computer Modern" font-style="italic"><tspan y="-87.975" x="157.256">W</tspan></text>
<text xml:space="preserve" transform="matrix(1 0 -0 1 .0010223389 374.87705)" font-size="9.9626" font-family="Computer Modern"><tspan y="-87.975" x="168.274">)</tspan></text>
<text xml:space="preserve" transform="matrix(1 0 -0 1 .0010223389 374.87705)" font-size="6.9738" font-family="Computer Modern"><tspan y="-86.480998" x="172.148 175.43964 177.97113 181.79975 183.57109 186.40943">cruise</tspan></text>
<path transform="matrix(1,0,0,-1,506.80403,284.41105)" d="M-32.57274-21.51959H32.57276V21.51961H-32.57274Z" fill="#ffb1ae"/>
<path transform="matrix(1,0,0,-1,506.80403,284.41105)" stroke-width=".3985" stroke-linecap="butt" stroke-miterlimit="10" stroke-linejoin="miter" fill="none" stroke="#000000" d="M-32.57274-21.51959H32.57276V21.51961H-32.57274Z"/>
<text xml:space="preserve" transform="matrix(1 0 -0 1 .0010070801 374.87705)" font-size="9.9626" font-family="Computer Modern"><tspan y="-95.128" x="494.031 500.3971 503.8043 508.95497 511.33604 515.15176">Cruise</tspan><tspan y="-79.586" x="485.189 491.55509 496.53639 501.68705 505.50273 509.0992 512.5064 517.2984 519.67947 524.8301">Constraint</tspan></text>
<path transform="matrix(1,0,0,-1,171.67829,342.78633)" d="M-33.38426-8.30194-28.93561 8.30194H33.38426L28.93561-8.30194Z" fill="#e5e6e5"/>
<path transform="matrix(1,0,0,-1,171.67829,342.78633)" stroke-width=".3985" stroke-linecap="butt" stroke-miterlimit="10" stroke-linejoin="miter" fill="none" stroke="#000000" d="M-33.38426-8.30194-28.93561 8.30194H33.38426L28.93561-8.30194Z"/>
<path transform="matrix(1,0,0,-1,168.46115,339.56919)" d="M-33.38426-8.30194-28.93561 8.30194H33.38426L28.93561-8.30194Z" fill="#e5e6e5"/>
<path transform="matrix(1,0,0,-1,168.46115,339.56919)" stroke-width=".3985" stroke-linecap="butt" stroke-miterlimit="10" stroke-linejoin="miter" fill="none" stroke="#000000" d="M-33.38426-8.30194-28.93561 8.30194H33.38426L28.93561-8.30194Z"/>
<path transform="matrix(1,0,0,-1,165.24402,336.35206)" d="M-33.38426-8.30194-28.93561 8.30194H33.38426L28.93561-8.30194Z" fill="#e5e6e5"/>
<path transform="matrix(1,0,0,-1,165.24402,336.35206)" stroke-width=".3985" stroke-linecap="butt" stroke-miterlimit="10" stroke-linejoin="miter" fill="none" stroke="#000000" d="M-33.38426-8.30194-28.93561 8.30194H33.38426L28.93561-8.30194Z"/>
<text xml:space="preserve" transform="matrix(1 0 -0 1 .0010070801 374.87705)" font-size="9.9626" font-family="Computer Modern"><tspan y="-36.034" x="139.628">(</tspan></text>
<text xml:space="preserve" transform="matrix(1 0 -0 1 .0010070801 374.87705)" font-size="9.9626" font-family="Computer Modern" font-style="italic"><tspan y="-36.034" x="143.502">T</tspan></text>
<text xml:space="preserve" transform="matrix(1 0 -0 1 .0010070801 374.87705)" font-size="9.9626" font-family="Computer Modern" font-style="italic"><tspan y="-36.034" x="151.615">/</tspan></text>
<text xml:space="preserve" transform="matrix(1 0 -0 1 .0010070801 374.87705)" font-size="9.9626" font-family="Computer Modern" font-style="italic"><tspan y="-36.034" x="156.59601">W</tspan></text>
<text xml:space="preserve" transform="matrix(1 0 -0 1 .0010070801 374.87705)" font-size="9.9626" font-family="Computer Modern"><tspan y="-36.034" x="167.61402">)</tspan></text>
<text xml:space="preserve" transform="matrix(1 0 -0 1 .0010070801 374.87705)" font-size="6.9738" font-family="Computer Modern"><tspan y="-34.54" x="171.48902 175.19211 177.87004 181.69866 184.9903 187.52179">others</tspan></text>
<path transform="matrix(1,0,0,-1,592.0743,342.78633)" d="M-40.19704-21.51959H40.197034V21.51961H-40.19704Z" fill="#ffb1ae"/>
<path transform="matrix(1,0,0,-1,592.0743,342.78633)" stroke-width=".3985" stroke-linecap="butt" stroke-miterlimit="10" stroke-linejoin="miter" fill="none" stroke="#000000" d="M-40.19704-21.51959H40.197034V21.51961H-40.19704Z"/>
<path transform="matrix(1,0,0,-1,588.8571,339.56919)" d="M-40.19704-21.51959H40.197034V21.51961H-40.19704Z" fill="#ffb1ae"/>
<path transform="matrix(1,0,0,-1,588.8571,339.56919)" stroke-width=".3985" stroke-linecap="butt" stroke-miterlimit="10" stroke-linejoin="miter" fill="none" stroke="#000000" d="M-40.19704-21.51959H40.197034V21.51961H-40.19704Z"/>
<path transform="matrix(1,0,0,-1,585.64,336.35206)" d="M-40.19704-21.51959H40.197034V21.51961H-40.19704Z" fill="#ffb1ae"/>
<path transform="matrix(1,0,0,-1,585.64,336.35206)" stroke-width=".3985" stroke-linecap="butt" stroke-miterlimit="10" stroke-linejoin="miter" fill="none" stroke="#000000" d="M-40.19704-21.51959H40.197034V21.51961H-40.19704Z"/>
<text xml:space="preserve" transform="matrix(1 0 -0 1 .0010375977 374.87705)" font-size="9.9626" font-family="Computer Modern"><tspan y="-43.187" x="556.402 563.73446 567.33096 572.48159 576.90499 583.62979 592.34707 594.7281 598.54379 602.35946 604.7405 609.7218">OtherMission</tspan><tspan y="-27.645" x="562.11599 568.48208 573.4634 578.614 582.4297 586.0262 589.4334 594.2254 596.60647 601.7571 605.3536">Constraints</tspan></text>
</svg>
