<svg xmlns="http://www.w3.org/2000/svg" xmlns:xlink="http://www.w3.org/1999/xlink" xmlns:inkscape="http://www.inkscape.org/namespaces/inkscape" version="1.1" width="439.249" height="249.68" viewBox="0 0 439.249 249.68">
<path transform="matrix(1,0,0,-1,219.624,124.84)" stroke-width="4.98138" stroke-linecap="square" stroke-miterlimit="10" stroke-linejoin="miter" fill="none" stroke="#999999" d="M107.22237-34.37518 148.77628-34.37527"/>
<path transform="matrix(1,0,0,-1,219.624,124.84)" stroke-width="4.98138" stroke-linecap="square" stroke-miterlimit="10" stroke-linejoin="miter" fill="none" stroke="#999999" d="M-76.48315 69.50829-49.66704 69.5081"/>
<path transform="matrix(1,0,0,-1,219.624,124.84)" stroke-width="4.98138" stroke-linecap="square" stroke-miterlimit="10" stroke-linejoin="miter" fill="none" stroke="#999999" d="M1.84248 17.56654 37.82808 17.56647"/>
<path transform="matrix(1,0,0,-1,219.624,124.84)" stroke-width="4.98138" stroke-linecap="square" stroke-miterlimit="10" stroke-linejoin="miter" fill="none" stroke="#999999" d="M123.42432-86.31691 87.69429-86.31702"/>
<path transform="matrix(1,0,0,-1,219.624,124.84)" stroke-width="4.98138" stroke-linecap="square" stroke-miterlimit="10" stroke-linejoin="miter" fill="none" stroke="#999999" d="M18.04443-34.37518H-177.25388"/>
<path transform="matrix(1,0,0,-1,219.624,124.84)" stroke-width="4.98138" stroke-linecap="square" stroke-miterlimit="10" stroke-linejoin="miter" fill="none" stroke="#999999" d="M164.54216-42.10217 164.54015-64.59807"/>
<path transform="matrix(1,0,0,-1,219.624,124.84)" stroke-width="4.98138" stroke-linecap="square" stroke-miterlimit="10" stroke-linejoin="miter" fill="none" stroke="#999999" d="M-34.4837 62.52861-34.48566 39.2854"/>
<path transform="matrix(1,0,0,-1,219.624,124.84)" stroke-width="4.98138" stroke-linecap="square" stroke-miterlimit="10" stroke-linejoin="miter" fill="none" stroke="#999999" d="M62.63719 9.06396 62.6334-12.65633"/>
<path transform="matrix(1,0,0,-1,219.624,124.84)" stroke-width="4.98138" stroke-linecap="square" stroke-miterlimit="10" stroke-linejoin="miter" fill="none" stroke="#999999" d="M62.63724-77.81413 62.6334-56.09402"/>
<path transform="matrix(1,0,0,-1,219.624,124.84)" stroke-width="4.98138" stroke-linecap="square" stroke-miterlimit="10" stroke-linejoin="miter" fill="none" stroke="#999999" d="M-122.93617 91.22714-122.93394 101.15582"/>
<path transform="matrix(1,0,0,-1,219.624,124.84)" stroke-width="4.98138" stroke-linecap="square" stroke-miterlimit="10" stroke-linejoin="miter" fill="none" stroke="#999999" d="M62.63506-12.65633 62.6442 99.73024"/>
<path transform="matrix(1,0,0,-1,219.624,124.84)" stroke-width=".99628" stroke-linecap="butt" stroke-miterlimit="10" stroke-linejoin="miter" fill="none" stroke="#000000" d="M-76.48315 69.50829H-34.48566V40.1173"/>
<path transform="matrix(0,1,1,0,185.13834,84.7227)" stroke-width=".79701" stroke-linecap="round" stroke-linejoin="round" fill="none" stroke="#000000" d="M-1.73352 2.31136C-1.58905 1.4446 0 .14444 .43336 0 0-.14444-1.58905-1.4446-1.73352-2.31136"/>
<path transform="matrix(1,0,0,-1,219.624,124.84)" stroke-width=".99628" stroke-linecap="butt" stroke-miterlimit="10" stroke-linejoin="miter" fill="none" stroke="#000000" d="M1.84248 17.56654H62.6334V-11.82443"/>
<path transform="matrix(0,1,1,0,282.2574,136.66443)" stroke-width=".79701" stroke-linecap="round" stroke-linejoin="round" fill="none" stroke="#000000" d="M-1.73352 2.31136C-1.58905 1.4446 0 .14444 .43336 0 0-.14444-1.58905-1.4446-1.73352-2.31136"/>
<path transform="matrix(1,0,0,-1,219.624,124.84)" stroke-width=".99628" stroke-linecap="butt" stroke-miterlimit="10" stroke-linejoin="miter" fill="none" stroke="#000000" d="M107.22237-34.37518H164.54015V-63.76616"/>
<path transform="matrix(0,1,1,0,384.16413,188.60616)" stroke-width=".79701" stroke-linecap="round" stroke-linejoin="round" fill="none" stroke="#000000" d="M-1.73352 2.31136C-1.58905 1.4446 0 .14444 .43336 0 0-.14444-1.58905-1.4446-1.73352-2.31136"/>
<path transform="matrix(1,0,0,-1,219.624,124.84)" stroke-width=".99628" stroke-linecap="butt" stroke-miterlimit="10" stroke-linejoin="miter" fill="none" stroke="#000000" d="M123.42432-86.31691H62.6334V-56.92593"/>
<path transform="matrix(0,-1,-1,-0,282.2574,181.76593)" stroke-width=".79701" stroke-linecap="round" stroke-linejoin="round" fill="none" stroke="#000000" d="M-1.73352 2.31136C-1.58905 1.4446 0 .14444 .43336 0 0-.14444-1.58905-1.4446-1.73352-2.31136"/>
<path transform="matrix(1,0,0,-1,96.68598,16.705994)" d="M-34.42046-6.77985-30.78741 6.77985H34.42046L30.78741-6.77985Z" fill="#ffffff"/>
<path transform="matrix(1,0,0,-1,96.68598,16.705994)" stroke-width=".3985" stroke-linecap="butt" stroke-miterlimit="10" stroke-linejoin="miter" fill="none" stroke="#000000" d="M-34.42046-6.77985-30.78741 6.77985H34.42046L30.78741-6.77985Z"/>
<text xml:space="preserve" transform="matrix(1 0 -0 1 -.000022888184 249.68)" font-size="9.9626" font-family="CMSS10"><tspan y="-229.515" x="69.219 77.93628 80.31734 84.13301 87.948688 90.32974 95.31104 103.77925 110.97225 115.76426 119.360759">MissionData</tspan></text>
<path transform="matrix(1,0,0,-1,282.25697,16.705994)" d="M-54.9223-8.20506-50.52556 8.20506H54.9223L50.52556-8.20506Z" fill="#ffffff"/>
<path transform="matrix(1,0,0,-1,282.25697,16.705994)" stroke-width=".3985" stroke-linecap="butt" stroke-miterlimit="10" stroke-linejoin="miter" fill="none" stroke="#000000" d="M-54.9223-8.20506-50.52556 8.20506H54.9223L50.52556-8.20506Z"/>
<text xml:space="preserve" transform="matrix(1 0 -0 1 -.000030517579 249.68)" font-size="9.9626" font-family="CMSSI10" font-style="italic"><tspan y="-230.94" x="235.053">W</tspan></text>
<text xml:space="preserve" transform="matrix(1 0 -0 1 -.000030517579 249.68)" font-size="6.9738" font-family="CMSS8"><tspan y="-229.446" x="244.46199 247.75363 250.28513 253.57677">crew</tspan></text>
<text xml:space="preserve" transform="matrix(1 0 -0 1 -.000030517579 249.68)" font-size="9.9626" font-family="CMSS10"><tspan y="-230.94" x="259.138">,</tspan></text>
<text xml:space="preserve" transform="matrix(1 0 -0 1 -.000030517579 249.68)" font-size="9.9626" font-family="CMSSI10" font-style="italic"><tspan y="-230.94" x="263.566">W</tspan></text>
<text xml:space="preserve" transform="matrix(1 0 -0 1 -.000030517579 249.68)" font-size="6.9738" font-family="CMSS8"><tspan y="-229.446" x="272.975 276.80363 280.15803 283.5752 285.33955 289.04264 292.59928">payload</tspan></text>
<text xml:space="preserve" transform="matrix(1 0 -0 1 -.000030517579 249.68)" font-size="9.9626" font-family="CMSS10"><tspan y="-230.94" x="296.92503">,</tspan></text>
<text xml:space="preserve" transform="matrix(1 0 -0 1 -.000030517579 249.68)" font-size="9.9626" font-family="CMSSI10" font-style="italic"><tspan y="-230.94" x="301.35304">W</tspan></text>
<text xml:space="preserve" transform="matrix(1 0 -0 1 -.000030517579 249.68)" font-size="6.9738" font-family="CMSS8"><tspan y="-229.446" x="310.76203 315.825">TO</tspan></text>
<text xml:space="preserve" transform="matrix(1 0 -0 1 -.000030517579 249.68)" font-size="4.9813" font-family="CMSS8"><tspan y="-228.434" x="321.29603 322.56129 325.29603 326.56129">init</tspan></text>
<path transform="matrix(1,0,0,-1,103.12024,61.766263)" d="M-46.25772-21.51959H46.257738V21.51961H-46.25772Z" fill="#a3da97"/>
<path transform="matrix(1,0,0,-1,103.12024,61.766263)" stroke-width=".3985" stroke-linecap="butt" stroke-miterlimit="10" stroke-linejoin="miter" fill="none" stroke="#000000" d="M-46.25772-21.51959H46.257738V21.51961H-46.25772Z"/>
<path transform="matrix(1,0,0,-1,99.9031,58.54912)" d="M-46.25772-21.51959H46.257738V21.51961H-46.25772Z" fill="#a3da97"/>
<path transform="matrix(1,0,0,-1,99.9031,58.54912)" stroke-width=".3985" stroke-linecap="butt" stroke-miterlimit="10" stroke-linejoin="miter" fill="none" stroke="#000000" d="M-46.25772-21.51959H46.257738V21.51961H-46.25772Z"/>
<path transform="matrix(1,0,0,-1,96.68597,55.331995)" d="M-46.25772-21.51959H46.257738V21.51961H-46.25772Z" fill="#a3da97"/>
<path transform="matrix(1,0,0,-1,96.68597,55.331995)" stroke-width=".3985" stroke-linecap="butt" stroke-miterlimit="10" stroke-linejoin="miter" fill="none" stroke="#000000" d="M-46.25772-21.51959H46.257738V21.51961H-46.25772Z"/>
<text xml:space="preserve" transform="matrix(1 0 -0 1 -.000030517579 249.68)" font-size="9.9626" font-family="CMSS10"><tspan y="-199.01" x="61.388 70.10528 72.486339 76.30201 80.11768 82.49874 87.48004 95.94825 101.48746 105.91085 110.89215 118.80245 123.225849 128.37651">MissionSegment</tspan><tspan y="-183.46799" x="63.131 72.2667 76.690097 79.07115 84.05245 89.20312 96.12712 101.516887 104.924098 109.7161 114.139499 117.73599 120.11705 125.09835">WeightFraction</tspan></text>
<path transform="matrix(1,0,0,-1,185.13898,55.331995)" d="M-16.79196-6.77985-13.15894 6.77985H16.79196L13.15894-6.77985Z" fill="#e5e6e5"/>
<path transform="matrix(1,0,0,-1,185.13898,55.331995)" stroke-width=".3985" stroke-linecap="butt" stroke-miterlimit="10" stroke-linejoin="miter" fill="none" stroke="#000000" d="M-16.79196-6.77985-13.15894 6.77985H16.79196L13.15894-6.77985Z"/>
<text xml:space="preserve" transform="matrix(1 0 -0 1 -.000015258789 249.68)" font-size="9.9626" font-family="CMSSI10" font-style="italic"><tspan y="-190.888" x="175.301 184.71566 190.38437">WFs</tspan></text>
<path transform="matrix(1,0,0,-1,185.13898,107.273998)" d="M-36.12889-21.51959H36.128908V21.51961H-36.12889Z" fill="#a3da97"/>
<path transform="matrix(1,0,0,-1,185.13898,107.273998)" stroke-width=".3985" stroke-linecap="butt" stroke-miterlimit="10" stroke-linejoin="miter" fill="none" stroke="#000000" d="M-36.12889-21.51959H36.128908V21.51961H-36.12889Z"/>
<text xml:space="preserve" transform="matrix(1 0 -0 1 -.000030517579 249.68)" font-size="9.9626" font-family="CMSS10"><tspan y="-147.069" x="159.97 165.35977 170.51044 174.93384 180.64241 189.77812 194.20153 196.58258 201.56388 206.71454">FuelWeight</tspan><tspan y="-131.52701" x="162.862 168.80968 172.62535 176.22185 178.6029 186.51322 191.30522 194.90172 197.28278 202.26407">Estimation</tspan></text>
<path transform="matrix(1,0,0,-1,282.25697,107.273998)" d="M-26.82358-8.30194-22.37492 8.30194H26.82358L22.37492-8.30194Z" fill="#e5e6e5"/>
<path transform="matrix(1,0,0,-1,282.25697,107.273998)" stroke-width=".3985" stroke-linecap="butt" stroke-miterlimit="10" stroke-linejoin="miter" fill="none" stroke="#000000" d="M-26.82358-8.30194-22.37492 8.30194H26.82358L22.37492-8.30194Z"/>
<text xml:space="preserve" transform="matrix(1 0 -0 1 -.000061035159 249.68)" font-size="9.9626" font-family="CMSSI10" font-style="italic"><tspan y="-139.916" x="263.203">W</tspan></text>
<text xml:space="preserve" transform="matrix(1 0 -0 1 -.000061035159 249.68)" font-size="6.9738" font-family="CMSS8"><tspan y="-138.421" x="272.612">f</tspan></text>
<text xml:space="preserve" transform="matrix(1 0 -0 1 -.000061035159 249.68)" font-size="9.9626" font-family="CMMI10" font-style="italic"><tspan y="-139.916" x="275.889">/</tspan></text>
<text xml:space="preserve" transform="matrix(1 0 -0 1 -.000061035159 249.68)" font-size="9.9626" font-family="CMSSI10" font-style="italic"><tspan y="-139.916" x="280.87">W</tspan></text>
<text xml:space="preserve" transform="matrix(1 0 -0 1 -.000061035159 249.68)" font-size="6.9738" font-family="CMSS8"><tspan y="-138.421" x="290.279 295.34199">TO</tspan></text>
<path transform="matrix(1,0,0,-1,26.43097,159.215)" d="M-17.93015-8.19063-13.54114 8.19063H17.93015L13.54114-8.19063Z" fill="#ffffff"/>
<path transform="matrix(1,0,0,-1,26.43097,159.215)" stroke-width=".3985" stroke-linecap="butt" stroke-miterlimit="10" stroke-linejoin="miter" fill="none" stroke="#000000" d="M-17.93015-8.19063-13.54114 8.19063H17.93015L13.54114-8.19063Z"/>
<text xml:space="preserve" transform="matrix(1 0 -0 1 -.000032424928 249.68)" font-size="9.9626" font-family="CMSSI10" font-style="italic"><tspan y="-88.417" x="16.211">W</tspan></text>
<text xml:space="preserve" transform="matrix(1 0 -0 1 -.000032424928 249.68)" font-size="6.9738" font-family="CMSY7" font-style="italic"><tspan y="-92.032" x="27.229">&#x2217;</tspan></text>
<text xml:space="preserve" transform="matrix(1 0 -0 1 -.000032424928 249.68)" font-size="6.9738" font-family="CMSS8"><tspan y="-85.595" x="25.62 30.68298">TO</tspan></text>
<path transform="matrix(1,0,0,-1,282.25697,159.215)" d="M-44.38971-21.51959H44.38971V21.51961H-44.38971Z" fill="#ffb1ae"/>
<path transform="matrix(1,0,0,-1,282.25697,159.215)" stroke-width=".3985" stroke-linecap="butt" stroke-miterlimit="10" stroke-linejoin="miter" fill="none" stroke="#000000" d="M-44.38971-21.51959H44.38971V21.51961H-44.38971Z"/>
<text xml:space="preserve" transform="matrix(1 0 -0 1 -.000045776369 249.68)" font-size="9.9626" font-family="CMSS10"><tspan y="-95.128" x="248.827 254.78464 259.57667 264.1694 268.5928 273.5741 276.47819 282.69984 291.83555 296.25895 298.64 303.6213 308.77198">TakeoffWeight</tspan><tspan y="-79.586" x="259.979 265.92668 269.74235 273.33885 275.7199 283.63023 288.42225 292.01875 294.3998 299.3811">Estimation</tspan></text>
<path transform="matrix(1,0,0,-1,384.16197,159.215)" d="M-17.57455-7.52704-13.54114 7.52704H17.57455L13.54114-7.52704Z" fill="#e5e6e5"/>
<path transform="matrix(1,0,0,-1,384.16197,159.215)" stroke-width=".3985" stroke-linecap="butt" stroke-miterlimit="10" stroke-linejoin="miter" fill="none" stroke="#000000" d="M-17.57455-7.52704-13.54114 7.52704H17.57455L13.54114-7.52704Z"/>
<text xml:space="preserve" transform="matrix(1 0 -0 1 -.000030517579 249.68)" font-size="9.9626" font-family="CMSSI10" font-style="italic"><tspan y="-87.753" x="373.942">W</tspan></text>
<text xml:space="preserve" transform="matrix(1 0 -0 1 -.000030517579 249.68)" font-size="6.9738" font-family="CMSS8"><tspan y="-86.258998" x="383.35099 388.41398">TO</tspan></text>
<path transform="matrix(1,0,0,-1,282.25697,211.156)" d="M-27.08087-8.30194-22.63222 8.30194H27.08087L22.63222-8.30194Z" fill="#e5e6e5"/>
<path transform="matrix(1,0,0,-1,282.25697,211.156)" stroke-width=".3985" stroke-linecap="butt" stroke-miterlimit="10" stroke-linejoin="miter" fill="none" stroke="#000000" d="M-27.08087-8.30194-22.63222 8.30194H27.08087L22.63222-8.30194Z"/>
<text xml:space="preserve" transform="matrix(1 0 -0 1 -.000061035159 249.68001)" font-size="9.9626" font-family="CMSSI10" font-style="italic"><tspan y="-36.034" x="262.946">W</tspan></text>
<text xml:space="preserve" transform="matrix(1 0 -0 1 -.000061035159 249.68001)" font-size="6.9738" font-family="CMSS8"><tspan y="-34.539" x="272.355">e</tspan></text>
<text xml:space="preserve" transform="matrix(1 0 -0 1 -.000061035159 249.68001)" font-size="9.9626" font-family="CMMI10" font-style="italic"><tspan y="-36.034" x="276.146">/</tspan></text>
<text xml:space="preserve" transform="matrix(1 0 -0 1 -.000061035159 249.68001)" font-size="9.9626" font-family="CMSSI10" font-style="italic"><tspan y="-36.034" x="281.128">W</tspan></text>
<text xml:space="preserve" transform="matrix(1 0 -0 1 -.000061035159 249.68001)" font-size="6.9738" font-family="CMSS8"><tspan y="-34.539" x="290.537 295.59999">TO</tspan></text>
<path transform="matrix(1,0,0,-1,384.16197,211.156)" d="M-40.91656-21.51959H40.91657V21.51961H-40.91656Z" fill="#a3da97"/>
<path transform="matrix(1,0,0,-1,384.16197,211.156)" stroke-width=".3985" stroke-linecap="butt" stroke-miterlimit="10" stroke-linejoin="miter" fill="none" stroke="#000000" d="M-40.91656-21.51959H40.91657V21.51961H-40.91656Z"/>
<text xml:space="preserve" transform="matrix(1 0 -0 1 -.000030517579 249.68001)" font-size="9.9626" font-family="CMSS10"><tspan y="-43.187" x="354.205 360.15266 368.06297 373.21363 376.53117 384.45146 393.58714 398.01054 400.3916 405.3729 410.52357">EmptyWeight</tspan><tspan y="-27.645" x="361.88499 367.83265 371.64833 375.2448 377.6259 385.5362 390.32823 393.9247 396.3058 401.28709">Estimation</tspan></text>
</svg>
